<?xml version="1.0" standalone="no"?>
<!DOCTYPE svg PUBLIC "-//W3C//DTD SVG 20010904//EN"
 "http://www.w3.org/TR/2001/REC-SVG-20010904/DTD/svg10.dtd">
<svg version="1.0" xmlns="http://www.w3.org/2000/svg"
 width="275.000000pt" height="275.000000pt" viewBox="0 0 275.000000 275.000000"
 preserveAspectRatio="xMidYMid meet">
<metadata>
Created by potrace 1.11, written by Peter Selinger 2001-2013
</metadata>
<g transform="translate(0.000000,275.000000) scale(0.100000,-0.100000)"
fill="#000000" stroke="none">
<path d="M1010 2179 c-194 -37 -331 -221 -331 -443 0 -84 8 -124 61 -339 50
-202 54 -291 14 -386 -40 -95 -161 -157 -267 -137 -42 8 -93 55 -114 104 -37
88 -3 225 72 291 33 29 89 51 129 51 16 0 18 6 14 53 -6 76 -43 119 -133 154
-37 14 -138 16 -185 3 -153 -42 -268 -228 -268 -433 0 -267 150 -448 429 -519
71 -17 103 -20 223 -16 120 4 151 9 208 31 335 129 434 462 249 836 -21 42
-66 128 -100 193 -71 133 -84 192 -56 251 20 43 73 71 115 62 16 -4 41 -20 56
-38 21 -25 25 -38 22 -71 -3 -23 -6 -47 -9 -54 -8 -27 49 -57 105 -57 156 2
210 192 97 341 -77 102 -199 147 -331 123z"/>
<path d="M2345 2175 c-160 -37 -281 -171 -312 -345 -9 -52 -6 -189 6 -235 91
-356 86 -331 86 -440 0 -138 -36 -204 -138 -258 -60 -32 -159 -31 -205 1 -90
65 -101 224 -23 334 29 42 109 88 153 88 25 0 28 3 28 34 0 106 -82 175 -217
184 -94 6 -159 -17 -228 -80 -155 -141 -194 -409 -89 -608 61 -116 145 -189
275 -240 109 -42 119 -43 279 -46 183 -4 257 15 381 97 132 88 204 226 208
400 3 139 -30 256 -122 429 -27 52 -64 122 -82 155 -40 75 -62 142 -59 177 9
98 105 147 175 88 28 -23 33 -34 34 -71 0 -24 -4 -54 -8 -66 -7 -18 -3 -25 23
-38 57 -29 105 -30 154 -1 130 76 107 283 -44 392 -74 54 -176 72 -275 49z"/>
</g>
</svg>
