<?xml version="1.0" encoding="UTF-8"?>
<!DOCTYPE svg PUBLIC "-//W3C//DTD SVG 1.1//EN" "http://www.w3.org/Graphics/SVG/1.1/DTD/svg11.dtd">
<!-- Creator: CorelDRAW X8 -->
<svg xmlns="http://www.w3.org/2000/svg" xml:space="preserve" width="8.12539in" height="8.26769in" version="1.1" style="shape-rendering:geometricPrecision; text-rendering:geometricPrecision; image-rendering:optimizeQuality; fill-rule:evenodd; clip-rule:evenodd"
viewBox="0 0 1686 1716"
 xmlns:xlink="http://www.w3.org/1999/xlink">
 <defs>
  <style type="text/css">
   <![CDATA[
    .fil0 {fill:#27273C}
   ]]>
  </style>
 </defs>
 <g id="Layer_x0020_1">
  <metadata id="CorelCorpID_0Corel-Layer"/>
  <g id="_2935816422240">
   <g>
    <g>
     <path class="fil0" d="M1662 192c-16,-9 -35,-9 -50,-1l-238 130 -412 -101c-96,-133 -253,-220 -430,-220 -293,0 -532,239 -532,532 0,109 33,211 90,295l302 735c25,61 72,109 132,134 31,14 64,20 96,20 31,0 63,-6 93,-18 61,-25 108,-72 134,-133 26,-60 26,-127 1,-188l-141 -343c104,-36 192,-103 255,-190l412 -101 238 130c7,4 16,6 24,6 9,0 18,-3 26,-7 15,-9 24,-26 24,-44l0 -592c0,-18 -9,-35 -24,-44zm-907 1223c14,36 14,75 -1,111 -15,36 -43,64 -79,78 -36,15 -76,15 -111,0 -36,-16 -64,-44 -79,-80l-218 -531c4,2 8,4 11,6 0,0 1,1 1,1 3,1 5,3 8,4 2,1 4,2 6,3 2,1 5,2 7,3 9,5 19,9 28,13 1,0 1,1 1,1 52,21 108,35 166,39 1,0 3,0 4,0 4,0 8,0 12,0 2,0 3,1 5,1 5,0 10,0 16,0 6,0 11,0 17,0 2,-1 3,-1 5,-1 4,0 9,0 14,0 1,0 2,-1 3,-1 6,0 12,-1 17,-1 1,0 2,0 3,-1 5,0 10,-1 15,-1 0,0 1,0 2,-1l147 357zm207 -863c0,2 0,3 0,5 0,6 -1,11 -1,16 0,1 0,3 -1,4 0,7 -1,14 -2,20 0,1 0,1 0,2 -1,6 -2,12 -4,18 0,1 0,2 0,3 -37,174 -178,310 -355,338 -1,0 -2,0 -3,0 -6,1 -12,2 -19,2 -1,1 -2,1 -3,1 -6,0 -13,1 -19,1 -1,0 -2,0 -3,0 -6,1 -13,1 -20,1 -7,0 -13,0 -20,-1 -1,0 -3,0 -4,0 -6,0 -12,-1 -18,-1 -2,0 -4,-1 -5,-1 -5,0 -10,-1 -15,-2 -3,0 -5,0 -7,-1 -5,0 -9,-1 -13,-2 -3,-1 -6,-1 -8,-2 -5,-1 -10,-2 -15,-3 -2,-1 -5,-1 -8,-2 -3,-1 -6,-2 -10,-3 -3,-1 -6,-2 -10,-3 -4,-1 -7,-3 -11,-4 -3,-1 -5,-2 -7,-3 -5,-1 -10,-3 -15,-5 -2,-1 -3,-2 -5,-2 -4,-2 -9,-5 -14,-7 -1,0 -2,-1 -3,-1 -5,-3 -11,-6 -17,-9 0,0 -1,0 -1,-1 -134,-73 -225,-215 -225,-378 0,-238 193,-431 431,-431 207,0 381,147 422,343 0,1 0,2 0,3 2,6 3,12 4,18 0,1 0,1 0,2 1,6 2,13 2,20 1,1 1,2 1,4 0,5 1,10 1,16 0,1 0,3 0,5 1,7 1,13 1,20 0,7 0,13 -1,20zm369 97l-303 75c1,-3 2,-5 3,-7 1,-3 1,-5 2,-7 2,-6 4,-11 6,-16 1,-3 2,-7 3,-10 1,-4 2,-8 3,-12 1,-4 2,-9 4,-14 0,-2 1,-4 1,-6 2,-6 3,-12 4,-19 0,-1 1,-3 1,-5 1,-7 2,-13 3,-20 1,-1 1,-3 1,-5 1,-6 2,-13 2,-20 0,-1 1,-3 1,-4 0,-7 1,-14 1,-21 0,-1 0,-2 0,-3 1,-8 1,-15 1,-23 0,-8 0,-15 -1,-23 0,-1 0,-2 0,-3 0,-7 -1,-14 -1,-21 0,-2 -1,-3 -1,-4 0,-7 -1,-14 -2,-21 0,-1 0,-3 -1,-4 -1,-7 -2,-13 -3,-20 0,-2 -1,-4 -1,-6 -1,-6 -2,-12 -4,-18 0,-2 -1,-4 -1,-7 -2,-4 -3,-9 -4,-13 -1,-4 -2,-8 -3,-12 -1,-4 -2,-7 -3,-10 -2,-5 -4,-11 -6,-16 -1,-2 -1,-4 -2,-6 -1,-3 -2,-5 -3,-8l303 75 0 234 0 0zm255 94l-154 -84 0 -254 154 -84 0 422z"/>
    </g>
   </g>
   <g>
    <g>
     <path class="fil0" d="M592 481l-272 0c-28,0 -51,23 -51,51 0,28 23,50 51,50l272 0c28,0 51,-22 51,-50 0,-28 -23,-51 -51,-51z"/>
    </g>
   </g>
   <g>
    <g>
     <path class="fil0" d="M793 522c0,-3 -1,-6 -2,-9 -2,-3 -3,-6 -5,-9 -2,-3 -4,-5 -6,-8 -3,-2 -5,-4 -8,-6 -3,-2 -6,-3 -9,-5 -3,-1 -6,-2 -9,-3 -7,-1 -13,-1 -20,0 -3,1 -6,2 -9,3 -3,2 -6,3 -9,5 -3,2 -5,4 -8,6 -2,3 -4,5 -6,8 -2,3 -3,6 -5,9 -1,3 -2,6 -3,9 0,3 -1,7 -1,10 0,3 1,7 1,10 1,3 2,6 3,9 2,3 3,6 5,9 2,3 4,5 6,8 3,2 5,4 8,6 3,2 6,3 9,5 3,1 6,2 9,2 3,1 7,1 10,1 3,0 6,0 10,-1 3,0 6,-1 9,-2 3,-2 6,-3 9,-5 3,-2 5,-4 8,-6 2,-3 4,-5 6,-8 2,-3 3,-6 5,-9 1,-3 2,-6 2,-9 1,-3 1,-7 1,-10 0,-3 0,-7 -1,-10z"/>
    </g>
   </g>
   <g>
    <g>
     <path class="fil0" d="M744 696l-273 0c-27,0 -50,23 -50,50 0,28 22,51 50,51l273 0c28,0 50,-23 50,-51 0,-27 -22,-50 -50,-50z"/>
    </g>
   </g>
   <g>
    <g>
     <path class="fil0" d="M369 737c0,-4 -1,-7 -2,-10 -2,-3 -3,-6 -5,-9 -2,-2 -4,-5 -6,-7 -3,-3 -5,-5 -8,-7 -3,-1 -6,-3 -9,-4 -3,-1 -6,-2 -9,-3 -7,-1 -13,-1 -20,0 -3,1 -6,2 -9,3 -3,1 -6,3 -9,4 -3,2 -5,4 -8,7 -2,2 -4,5 -6,7 -2,3 -3,6 -5,9 -1,3 -2,6 -2,10 -1,3 -2,6 -2,9 0,14 6,27 15,36 3,2 5,5 8,6 3,2 6,4 9,5 3,1 6,2 9,3 3,1 7,1 10,1 3,0 7,0 10,-1 3,-1 6,-2 9,-3 3,-1 6,-3 9,-5 3,-1 5,-4 8,-6 9,-9 14,-22 14,-36 0,-3 0,-6 -1,-9z"/>
    </g>
   </g>
   <g>
    <g>
     <path class="fil0" d="M744 267l-273 0c-27,0 -50,23 -50,50 0,28 22,51 50,51l273 0c28,0 50,-23 50,-51 0,-27 -22,-50 -50,-50z"/>
    </g>
   </g>
   <g>
    <g>
     <path class="fil0" d="M369 308c0,-4 -1,-7 -2,-10 -2,-3 -3,-6 -5,-9 -2,-2 -4,-5 -6,-7 -3,-3 -5,-5 -8,-7 -3,-1 -6,-3 -9,-4 -3,-1 -6,-2 -9,-3 -7,-1 -13,-1 -20,0 -3,1 -6,2 -9,3 -3,1 -6,3 -9,4 -3,2 -5,4 -8,7 -2,2 -4,5 -6,7 -2,3 -3,6 -5,9 -1,3 -2,6 -2,10 -1,3 -2,6 -2,9 0,14 6,27 15,36 3,2 5,5 8,6 3,2 6,4 9,5 3,1 6,2 9,3 3,1 7,1 10,1 3,0 7,0 10,-1 3,-1 6,-2 9,-3 3,-1 6,-3 9,-5 3,-1 5,-4 8,-6 9,-9 14,-22 14,-36 0,-3 0,-6 -1,-9z"/>
    </g>
   </g>
   <g>
   </g>
   <g>
   </g>
   <g>
   </g>
   <g>
   </g>
   <g>
   </g>
   <g>
   </g>
   <g>
   </g>
   <g>
   </g>
   <g>
   </g>
   <g>
   </g>
   <g>
   </g>
   <g>
   </g>
   <g>
   </g>
   <g>
   </g>
   <g>
   </g>
  </g>
 </g>
</svg>
