<?xml version="1.0" encoding="UTF-8"?>
<!DOCTYPE svg PUBLIC "-//W3C//DTD SVG 1.1//EN" "http://www.w3.org/Graphics/SVG/1.1/DTD/svg11.dtd">
<!-- Creator: CorelDRAW X8 -->
<svg xmlns="http://www.w3.org/2000/svg" xml:space="preserve" width="11.4853in" height="10.8027in" version="1.1" style="shape-rendering:geometricPrecision; text-rendering:geometricPrecision; image-rendering:optimizeQuality; fill-rule:evenodd; clip-rule:evenodd"
viewBox="0 0 8953 8421"
 xmlns:xlink="http://www.w3.org/1999/xlink">
 <defs>
  <style type="text/css">
   <![CDATA[
    .fil0 {fill:#27273C}
   ]]>
  </style>
 </defs>
 <g id="Layer_x0020_1">
  <metadata id="CorelCorpID_0Corel-Layer"/>
  <path class="fil0" d="M3708 7345c-52,-340 248,-750 703,-624 627,173 751,966 432,1238 -146,125 -290,185 -528,132 -148,-33 -331,-159 -407,-262 -119,-161 -164,-250 -200,-484zm3999 -1526c-18,192 -50,288 -159,406 -469,509 -1102,-35 -1098,-185 -13,-12 -5,-3 -18,-20l-52 -122c-18,-52 -22,-110 -27,-168 -10,-121 26,-230 69,-316 206,-407 699,-449 1043,-147 94,82 118,135 169,222 53,93 71,205 73,330zm-3915 -1556c-3,30 5,15 -19,23 -20,41 -16,31 -62,53 -75,37 -138,33 -211,-22 -70,-52 -119,-195 -34,-289 152,-170 395,-27 360,165l-34 70zm-1583 -4226c15,20 19,72 15,91 31,23 17,3 43,97 71,258 419,1379 427,1469 27,49 53,154 69,210 20,71 50,150 63,221 8,10 251,832 257,879 17,41 59,143 50,189 32,25 106,319 106,350 -55,-2 -137,-64 -179,-86l-147 -81c-13,-10 -12,-9 -21,-18 -24,0 -367,-186 -393,-219 -89,-28 -704,-393 -889,-516 -37,-25 -62,-40 -107,-66l-93 -64c-36,-10 -636,-365 -672,-411 -47,-6 -188,-112 -241,-144 -86,-50 -345,-204 -383,-243 -34,-13 -98,-44 -114,-70 10,17 15,15 26,27 26,27 13,5 30,41 43,8 89,72 135,107 19,15 111,93 118,113 60,30 162,133 235,195 43,36 67,61 111,96 33,26 80,66 111,93 136,121 1301,1126 1318,1166 26,5 1,-10 36,15l572 500c30,29 66,61 96,87l693 606c31,49 29,93 -5,136 -20,23 -65,75 -91,86 -13,42 -93,114 -127,150 -201,227 -406,453 -612,676 -170,183 -328,361 -492,537l-976 1063c-21,49 -22,21 -39,70 19,30 34,46 73,51l1615 -1680c58,-54 89,-105 146,-158 95,-88 218,-218 293,-301 47,-52 102,-106 149,-155 46,-49 100,-134 168,-142l199 484c141,354 325,743 9,1030 -123,111 -249,210 -313,379 -213,571 51,1142 516,1397 285,156 455,106 570,127l143 -36c42,-11 94,-29 132,-51 1137,-638 102,-1481 -157,-2005l-332 -701c-84,-158 -372,-932 -343,-1081 185,-38 730,101 871,180 84,21 405,182 448,231 87,33 293,207 356,263 62,55 196,208 243,287 18,31 16,24 20,51l74 138c96,335 61,418 307,710 173,206 541,369 857,327 383,-51 490,-226 558,-247 4,-22 -7,2 7,-17 26,-38 -28,12 11,-6 26,-51 57,-63 90,-121 158,-270 79,-176 164,-432 376,-116 429,37 640,-32 86,-29 151,-71 210,-147 31,-42 109,-187 86,-241 -88,-27 -290,48 -390,57 -350,74 -469,115 -661,-215 -111,-191 -206,-307 -392,-420 -158,-95 -419,-177 -658,-135 -218,38 -138,36 -318,93 -95,30 -165,44 -266,42l-88 -18c-34,6 -182,-14 -206,-33 -111,-20 -288,-85 -376,-125 -158,-70 -604,-239 -700,-298 -64,-39 -263,-155 -289,-214 230,-10 570,194 658,213 -31,-90 -188,-219 -241,-361 41,7 67,32 96,62 30,32 52,47 84,79 34,34 58,47 86,76 37,37 40,54 76,9 -15,-38 -78,-86 -109,-116l-120 -108c-128,-109 -195,-144 -189,-250 44,1 195,150 251,198 38,34 198,201 238,203l19 -35 -248 -230c-22,-22 -39,-36 -63,-57 -58,-51 -107,-112 -186,-162l13 -65c53,-8 106,68 146,103l273 247c59,51 110,119 139,90 35,-34 -36,-77 -111,-140l-278 -253c-83,-81 -149,-94 -93,-165 41,6 38,6 88,52l442 414c29,3 31,9 56,-18 -12,-45 -93,-97 -127,-129 -42,-39 -86,-86 -135,-125 -48,-40 -94,-87 -135,-125 -37,-35 -113,-80 -132,-134l46 -38c39,14 400,347 486,433 68,68 63,37 74,25 30,-33 -81,-111 -106,-134l-284 -257c-31,-28 -150,-98 -105,-144 41,-42 249,179 291,217 47,41 86,77 142,129 37,34 105,107 141,114 33,-42 18,-51 -14,-78l-217 -194c-63,-63 -361,-282 -234,-285l31 9c52,31 364,336 442,404 14,12 20,19 35,30 40,31 0,15 42,22 24,-51 9,-54 -31,-87l-203 -186c-53,-50 -252,-214 -275,-260l45 -40c44,12 232,196 278,240 47,46 89,85 136,124 45,38 81,105 149,101 5,-52 -16,-57 -52,-89l-426 -387c-25,-24 -61,-80 2,-80l136 105c45,45 85,79 136,124 54,46 91,87 135,125 41,37 98,103 144,113 33,-40 26,-40 -17,-78l-370 -333c-30,-28 -152,-98 -100,-149 47,-27 56,1 86,32l216 196c55,49 91,79 142,128 23,23 114,136 143,88 17,-34 -11,-44 -47,-76 -122,-108 -238,-224 -364,-328l-74 -68c-41,-37 -28,-46 -1,-77 56,-4 117,75 149,104 43,40 80,71 135,124 51,50 236,229 277,243l27 -31c-12,-30 -239,-228 -281,-268 -90,-87 -274,-200 -224,-268 58,-5 120,78 157,108l279 252c34,33 96,126 150,89 -2,-55 -16,-37 -60,-81l-205 -186c-54,-46 -95,-84 -142,-128 -36,-33 -119,-76 -106,-139 46,-9 47,7 86,40l351 320c45,41 97,126 161,86 -16,-75 -513,-434 -528,-519 29,-33 38,-48 83,-9l369 336c22,22 117,137 151,107 26,-43 -1,-46 -38,-80l-351 -320c-46,-40 -118,-77 -117,-143 45,-29 43,-25 83,14l362 332c24,22 120,129 150,99 36,-36 -90,-124 -114,-146l-296 -268c-99,-84 -122,-83 -69,-151 63,24 228,193 282,241 42,38 234,229 281,238 28,-58 12,-51 -32,-86l-203 -186c-41,-43 -98,-93 -142,-129 -24,-20 -114,-101 -129,-130 8,-17 -3,-4 16,-26 21,-24 13,-12 26,-21 99,54 467,438 518,462 11,5 7,3 23,4l20 -20c0,-2 1,-6 0,-8 -5,-44 -361,-333 -402,-377 -30,-31 -152,-104 -88,-147 28,-19 32,-5 51,11 6,5 21,24 32,33 89,81 423,405 482,423l23 -31c-42,-75 -524,-445 -522,-513 55,-43 111,39 149,76 86,84 362,295 401,376l39 2c10,-26 6,-20 12,-38l-418 -384c-20,-18 -156,-127 -76,-140 70,-11 -23,-11 23,-2 33,7 486,456 534,469 41,-40 21,-50 -15,-80 -34,-29 -45,-37 -74,-66l-290 -263c-33,-27 -42,-43 -73,-68 -52,-41 -52,-50 -33,-71 40,-32 55,1 86,30l347 313c29,26 99,112 140,116l9 -6c7,-61 -16,-65 -54,-96l-204 -186c-43,-43 -93,-87 -143,-128 -59,-49 -134,-104 -96,-143 28,-29 35,-19 90,29l347 313c75,65 91,119 156,100 4,-50 -58,-81 -118,-136 -43,-39 -87,-83 -135,-125 -51,-45 -247,-209 -264,-256 26,-54 35,-52 77,-13l369 336c101,90 105,127 159,98 2,-46 -13,-37 -52,-75l-136 -124c-32,-26 -35,-35 -67,-63 -54,-47 -250,-215 -267,-258l36 -39c44,7 291,246 353,305 23,23 41,36 69,60 33,30 42,36 68,63 25,26 34,48 79,41 15,-50 -14,-61 -45,-87l-347 -313c-54,-49 -119,-95 -119,-136 59,-58 108,23 164,69 50,42 96,92 141,131l250 228c12,8 5,5 19,9l14 0c0,-2 4,-1 6,-1 28,-46 3,-52 -33,-81 -83,-66 -458,-410 -471,-442 15,-32 7,-12 26,-41 41,6 109,79 146,110l372 342c33,24 14,14 51,26 1,-16 -10,-12 11,-11 2,-52 -29,-61 -56,-85l-352 -320c-82,-83 -136,-88 -92,-145 43,1 365,313 425,365 71,62 112,130 145,95 24,-44 -7,-42 -45,-76l-456 -422c-13,-18 -2,1 -15,-23l38 -40c58,10 502,461 544,467 25,4 2,6 22,-4 37,-33 -52,-85 -111,-142 -81,-77 -376,-327 -401,-379l33 -42c47,16 402,350 488,432 45,42 98,70 82,5 -6,-21 -87,-86 -115,-113l-352 -319c-96,-87 -20,-128 49,-60l210 191c32,31 253,239 290,248 22,-56 8,-57 -35,-92 -71,-57 -463,-419 -472,-443 24,-42 39,-53 79,-21 25,21 52,47 75,68l301 273c101,90 111,129 163,87 -3,-32 -371,-348 -414,-388 -64,-60 -142,-105 -92,-149 43,-21 41,2 82,39l352 320c68,61 119,135 147,88 16,-43 19,-8 -17,-44 -83,-85 -492,-425 -500,-474 41,-38 42,-30 80,4 31,28 42,37 73,68 51,52 399,369 436,377 28,-45 40,-28 -90,-138l-272 -248c-60,-59 -113,-82 -127,-133 60,-66 115,16 161,56l282 260c20,19 169,173 148,66 -9,-47 -403,-341 -447,-434 117,-14 150,46 282,168 41,39 203,200 244,207 26,-58 -12,-73 -120,-168 -32,-29 -56,-50 -86,-76 -29,-26 -43,-51 -71,-77 78,6 144,56 206,93 45,27 151,105 191,112 -18,-112 -247,-282 -366,-349 -149,-83 -313,-130 -488,-117 -369,26 -1355,1301 -1613,1580l-542 595c-38,40 -74,92 -111,112 -19,47 -273,311 -321,365l-640 703c-26,28 -138,162 -161,171 -108,47 -189,-176 -215,-238 -48,-118 -132,-297 -194,-413 -19,-37 -38,-73 -56,-116 -27,-65 -98,-187 -111,-253 -19,-8 -84,-161 -101,-195 -18,-36 -30,-73 -46,-106 -21,-41 -43,-59 -43,-105l-64 -114c-17,-34 -33,-76 -51,-112 -23,-47 -94,-184 -106,-235 -5,-6 -2,-1 -12,-16l-356 -758c-150,-294 -314,-637 -446,-938 -17,-40 -80,-162 -73,-185 -34,-31 -107,-189 -115,-224l1 37z"/>
 </g>
</svg>
