<?xml version="1.0" encoding="UTF-8"?>
<!DOCTYPE svg PUBLIC "-//W3C//DTD SVG 1.1//EN" "http://www.w3.org/Graphics/SVG/1.1/DTD/svg11.dtd">
<!-- Creator: CorelDRAW X8 -->
<svg xmlns="http://www.w3.org/2000/svg" xml:space="preserve" width="1.1358in" height="3.54161in" version="1.1" style="shape-rendering:geometricPrecision; text-rendering:geometricPrecision; image-rendering:optimizeQuality; fill-rule:evenodd; clip-rule:evenodd"
viewBox="0 0 375 1169"
 xmlns:xlink="http://www.w3.org/1999/xlink">
 <defs>
  <style type="text/css">
   <![CDATA[
    .fil0 {fill:#27273C}
   ]]>
  </style>
 </defs>
 <g id="Layer_x0020_1">
  <metadata id="CorelCorpID_0Corel-Layer"/>
  <g id="_2935828649696">
   <path class="fil0" d="M303 963c-1,-16 -2,-97 1,-105 5,-18 23,-18 28,0 1,3 9,237 -5,257l-18 -1c-13,-18 -6,-121 -6,-151zm-272 -579l0 109c1,48 -10,272 8,297l-23 1c-21,5 -16,11 -15,39l5 332c0,0 1,3 1,4 8,6 249,2 293,2 68,0 72,8 73,-21 4,-61 0,-135 0,-198 0,-172 15,-155 -37,-160l4 -11 0 -393c1,-33 5,-38 -6,-48 -11,-10 -252,-7 -286,-5l-16 6 -1 46z"/>
   <path class="fil0" d="M95 137c25,0 25,24 63,6 22,-11 30,-27 56,-32 -8,30 -98,92 -119,26zm-21 172c34,2 190,6 214,-4 5,-44 1,-116 1,-163 -1,-87 4,-70 -25,-142 -33,2 -137,76 -156,92 -31,27 -34,41 -34,92 0,39 -4,86 0,125z"/>
  </g>
 </g>
</svg>
