<?xml version="1.0" encoding="UTF-8"?>
<!DOCTYPE svg PUBLIC "-//W3C//DTD SVG 1.1//EN" "http://www.w3.org/Graphics/SVG/1.1/DTD/svg11.dtd">
<!-- Creator: CorelDRAW X8 -->
<svg xmlns="http://www.w3.org/2000/svg" xml:space="preserve" width="9.43476in" height="1.3992in" version="1.1" style="shape-rendering:geometricPrecision; text-rendering:geometricPrecision; image-rendering:optimizeQuality; fill-rule:evenodd; clip-rule:evenodd"
viewBox="0 0 8962 1329"
 xmlns:xlink="http://www.w3.org/1999/xlink">
 <defs>
  <style type="text/css">
   <![CDATA[
    .fil0 {fill:#FFFFFF;fill-rule:nonzero}
   ]]>
  </style>
 </defs>
 <g id="Layer_x0020_1">
  <metadata id="CorelCorpID_0Corel-Layer"/>
  <path class="fil0" d="M443 754c3,-12 4,-24 4,-35 0,-82 -85,-132 -178,-132 -44,0 -91,13 -130,39 -90,67 -139,181 -139,298 0,130 60,261 187,333 87,48 185,72 284,72 223,0 436,-128 436,-393 0,-10 -2,-21 -2,-31 -12,-229 -198,-405 -198,-523 0,-15 4,-29 11,-43 18,-35 46,-49 72,-49 40,0 78,34 78,81 0,16 -4,35 -15,54 26,25 55,36 83,36 64,0 121,-57 121,-136 0,-29 -9,-61 -27,-94 -48,-88 -129,-127 -213,-127 -116,0 -237,74 -281,197 -18,48 -25,95 -25,141 0,154 79,297 79,433 0,43 -8,86 -29,128 -32,57 -103,90 -162,90 -21,0 -42,-4 -59,-14 -48,-28 -71,-79 -71,-133 0,-93 64,-192 164,-192l10 0z"/>
  <path id="1" class="fil0" d="M1500 1004c132,-15 253,-107 366,-237l-72 -30c-43,59 -164,163 -234,173 37,-77 52,-145 52,-202 0,-141 -97,-218 -200,-218 -43,0 -86,14 -125,42 -18,-8 -36,-13 -57,-13 -75,0 -162,60 -216,203 -17,46 -28,96 -28,145 0,97 43,187 165,227 25,9 56,13 88,13 93,0 205,-35 261,-103zm-200 -326c32,-61 71,-89 100,-89 28,0 47,23 47,69 0,53 -28,136 -103,245 -47,-6 -69,-59 -69,-118 0,-38 8,-77 25,-107zm-106 327c-19,-11 -26,-38 -26,-72 0,-34 8,-75 21,-105 3,61 47,125 96,150 -20,27 -41,36 -60,36 -11,0 -22,-4 -31,-9z"/>
  <path id="2" class="fil0" d="M1940 1097c17,-114 58,-235 108,-319 50,-60 148,-132 186,-138l3 0c9,0 11,6 11,15 0,50 -93,221 -93,341 0,54 20,97 75,114 6,1 11,2 18,4 10,3 21,3 32,3 177,0 417,-277 466,-349l-80 -28c-22,31 -200,218 -258,218 -5,0 -10,-1 -12,-5 -3,-3 -5,-7 -5,-13 0,-54 95,-225 95,-337 0,-49 -18,-86 -70,-98 -12,-2 -25,-4 -37,-4 -92,0 -204,61 -272,120 14,-41 14,-46 46,-88 -14,-36 -70,-59 -131,-59 -53,0 -108,18 -139,59 -61,170 -128,277 -168,403 -5,18 -8,39 -8,60 0,47 16,94 64,109 16,6 39,10 66,10 28,0 63,-4 103,-18z"/>
  <path id="3" class="fil0" d="M3126 1114c10,3 21,3 32,3 176,0 417,-277 465,-349l-79 -28c-22,31 -200,218 -258,218 -6,0 -10,-1 -13,-5 -3,-3 -4,-7 -4,-13 0,-54 95,-225 95,-337 0,-49 -19,-86 -70,-98 -12,-2 -25,-4 -37,-4 -92,0 -205,61 -273,120 16,-42 38,-104 63,-146 301,-51 417,-197 417,-314 0,-83 -59,-151 -149,-160 -10,-1 -21,-1 -31,-1 -384,0 -607,700 -691,936 -7,18 -10,38 -10,60 0,46 18,94 65,109 17,6 39,10 67,10 28,0 62,-4 103,-18 16,-114 58,-235 108,-319 50,-60 149,-132 186,-138l3 0c8,0 11,6 11,15 0,52 -93,223 -93,341 0,54 19,97 75,114 6,1 11,2 18,4zm169 -865c-52,75 -215,119 -215,119 82,-151 149,-197 189,-197 25,0 39,19 39,41 0,12 -4,25 -13,37z"/>
  <path id="4" class="fil0" d="M4032 1004c131,-15 252,-107 366,-237l-72 -30c-43,59 -164,163 -235,173 38,-77 53,-145 53,-202 0,-141 -97,-218 -200,-218 -43,0 -86,14 -125,42 -18,-8 -36,-13 -57,-13 -75,0 -162,60 -217,203 -16,46 -27,96 -27,145 0,97 43,187 165,227 25,9 55,13 87,13 93,0 206,-35 262,-103zm-200 -326c31,-61 70,-89 100,-89 27,0 47,23 47,69 0,53 -28,136 -103,245 -47,-6 -69,-59 -69,-118 0,-38 8,-77 25,-107zm-106 327c-19,-11 -26,-38 -26,-72 0,-34 8,-75 20,-105 3,61 48,125 96,150 -19,27 -40,36 -59,36 -12,0 -23,-4 -31,-9z"/>
  <path id="5" class="fil0" d="M5329 754c2,-12 4,-24 4,-35 0,-82 -85,-132 -178,-132 -44,0 -92,13 -131,39 -90,67 -138,181 -138,298 0,130 59,261 187,333 86,48 185,72 283,72 224,0 436,-128 436,-393 0,-10 -1,-21 -1,-31 -12,-229 -199,-405 -199,-523 0,-15 5,-29 12,-43 18,-35 45,-49 72,-49 40,0 78,34 78,81 0,16 -5,35 -16,54 27,25 56,36 84,36 63,0 120,-57 120,-136 0,-29 -8,-61 -26,-94 -49,-88 -129,-127 -214,-127 -115,0 -236,74 -280,197 -18,48 -25,95 -25,141 0,154 79,297 79,433 0,43 -9,86 -29,128 -32,57 -103,90 -163,90 -21,0 -42,-4 -58,-14 -49,-28 -71,-79 -71,-133 0,-93 64,-192 164,-192l10 0z"/>
  <path id="6" class="fil0" d="M6796 742c-45,62 -212,194 -255,200l-4 0c-15,0 -22,-13 -22,-34 0,-94 129,-358 141,-394 -8,-38 -62,-65 -118,-65 -46,0 -91,18 -114,62 -16,44 -61,150 -93,261 -65,67 -193,165 -229,170l-4 0c-17,0 -22,-13 -22,-34 0,-94 129,-358 141,-394 -8,-38 -64,-65 -122,-65 -46,0 -93,18 -115,62 -25,71 -129,296 -129,450 0,74 25,132 93,147 7,2 15,3 23,3 91,0 230,-101 334,-197 -2,18 -3,35 -3,51 0,72 21,128 85,143 7,2 15,3 23,3 147,0 420,-268 468,-343l-78 -26z"/>
  <path id="7" class="fil0" d="M7181 914c-3,19 -3,37 -3,54 0,71 20,125 78,142 8,2 18,4 28,4 146,0 412,-272 461,-346l-78 -28c-46,63 -198,179 -240,186l-4 0c-17,0 -24,-14 -24,-36 0,-93 120,-340 134,-375 -7,-37 -60,-64 -116,-64 -44,0 -90,18 -114,64 -5,17 -15,40 -26,70 -51,-67 -111,-95 -174,-95 -116,0 -237,102 -297,228 -36,74 -51,142 -51,199 0,111 60,181 147,181 78,0 178,-55 279,-184zm-161 -53c-3,-10 -4,-19 -4,-31 0,-88 87,-218 169,-218 24,0 48,10 68,35 -15,42 -30,88 -44,135 -49,48 -115,104 -157,104 -15,0 -26,-7 -32,-25z"/>
  <path id="8" class="fil0" d="M7724 518c-22,64 -87,254 -87,408 0,100 26,185 109,211 16,6 32,7 50,7 118,0 259,-119 377,-316l150 -14 0 -71c-34,0 -68,0 -103,-1 35,-68 67,-143 93,-224 -11,-22 -47,-31 -83,-31 -41,0 -84,12 -99,31 -24,67 -49,129 -75,186 -11,-7 -21,-14 -29,-24l-3 0c-43,0 -73,64 -73,113 0,28 11,50 34,50 -51,87 -96,140 -116,143l-5 0c-16,0 -23,-15 -23,-42 0,-107 119,-391 132,-426 -4,-32 -52,-44 -104,-44 -63,0 -132,18 -145,44z"/>
  <path id="9" class="fil0" d="M8782 624c-8,-81 -69,-125 -147,-125 -226,0 -372,212 -372,388 0,106 53,198 174,221 16,3 32,4 48,4 215,0 429,-270 477,-344l-80 -28c-82,102 -236,220 -307,220 -6,0 -12,-2 -16,-3 -25,-10 -36,-39 -36,-75 0,-14 1,-28 4,-43 233,-61 255,-157 255,-215zm-108 -17c7,4 11,10 11,17 0,29 -57,79 -126,90 16,-43 62,-110 101,-110 4,0 10,0 14,3z"/>
 </g>
</svg>
