<?xml version="1.0" encoding="UTF-8"?>
<!DOCTYPE svg PUBLIC "-//W3C//DTD SVG 1.1//EN" "http://www.w3.org/Graphics/SVG/1.1/DTD/svg11.dtd">
<!-- Creator: CorelDRAW X8 -->
<svg xmlns="http://www.w3.org/2000/svg" xml:space="preserve" width="8.85554in" height="1.64497in" version="1.1" style="shape-rendering:geometricPrecision; text-rendering:geometricPrecision; image-rendering:optimizeQuality; fill-rule:evenodd; clip-rule:evenodd"
viewBox="0 0 9449 1755"
 xmlns:xlink="http://www.w3.org/1999/xlink">
 <defs>
  <style type="text/css">
   <![CDATA[
    .fil0 {fill:white;fill-rule:nonzero}
   ]]>
  </style>
 </defs>
 <g id="Layer_x0020_1">
  <metadata id="CorelCorpID_0Corel-Layer"/>
  <path class="fil0" d="M498 847c3,-14 4,-27 4,-39 0,-92 -95,-149 -200,-149 -49,0 -102,15 -146,44 -101,75 -156,204 -156,335 0,146 67,293 210,374 98,54 208,81 319,81 251,0 490,-144 490,-442 0,-11 -2,-23 -2,-34 -14,-258 -223,-455 -223,-588 0,-17 5,-32 13,-48 20,-40 51,-55 80,-55 45,0 88,38 88,91 0,18 -4,39 -17,60 29,28 62,41 93,41 72,0 136,-64 136,-153 0,-33 -10,-68 -30,-106 -54,-98 -145,-142 -239,-142 -131,0 -266,83 -316,221 -20,54 -28,107 -28,159 0,172 89,333 89,486 0,48 -9,97 -33,144 -36,64 -116,101 -182,101 -23,0 -47,-5 -66,-16 -54,-31 -80,-89 -80,-149 0,-105 72,-216 184,-216l12 0 0 0zm4031 281c147,-17 283,-120 411,-266l-80 -34c-49,66 -185,183 -264,194 42,-86 59,-163 59,-227 0,-158 -109,-245 -225,-245 -48,0 -96,16 -140,48 -20,-9 -40,-15 -64,-15 -84,0 -182,67 -244,228 -3,10 -7,21 -10,32 -46,55 -221,233 -281,233 -6,0 -11,-1 -14,-5 -4,-4 -5,-8 -5,-15 0,-61 107,-253 107,-379 0,-55 -21,-96 -79,-110 -13,-2 -28,-4 -41,-4 -104,0 -231,68 -307,135 18,-48 43,-117 71,-164 338,-58 468,-222 468,-353 0,-93 -66,-170 -167,-180 -11,-1 -24,-1 -35,-1 -345,0 -574,502 -700,839 -41,50 -223,237 -284,237 -6,0 -11,-1 -14,-5 -3,-4 -5,-8 -5,-15 0,-61 107,-253 107,-379 0,-55 -21,-96 -79,-110 -14,-2 -28,-4 -42,-4 -103,0 -229,68 -305,135 16,-46 16,-52 52,-99 -16,-41 -79,-67 -148,-67 -59,0 -121,21 -156,67 -32,89 -65,163 -96,230l-4 -1c-48,66 -184,183 -263,194 42,-86 59,-163 59,-227 0,-158 -109,-245 -225,-245 -48,0 -96,16 -140,48 -21,-9 -41,-15 -64,-15 -85,0 -182,67 -243,228 -19,52 -31,108 -31,163 0,109 48,210 185,255 28,10 63,15 99,15 104,0 230,-40 293,-116 89,-10 174,-52 254,-115 -4,13 -8,26 -13,38 -5,21 -8,44 -8,68 0,53 17,105 71,122 18,7 44,12 75,12 31,0 70,-5 115,-21l0 0c19,-128 65,-264 122,-358 56,-67 166,-148 209,-155l3 0c10,0 12,7 12,17 0,56 -104,248 -104,383 0,60 22,109 84,128 7,1 12,2 20,4 11,4 24,4 36,4 111,0 244,-97 349,-197 -6,19 -8,39 -8,61 0,52 20,105 73,122 19,7 43,12 75,12 31,0 69,-5 116,-21 17,-128 65,-264 121,-358 56,-67 167,-148 209,-155l3 0c9,0 13,7 13,17 0,58 -105,250 -105,383 0,60 21,109 84,128 7,1 13,2 21,4l0 0c11,4 23,4 35,4 132,0 295,-137 406,-253 8,98 59,186 184,227 28,10 62,15 98,15 104,0 231,-40 294,-116l0 0zm-224 -366c34,-69 78,-100 112,-100 30,0 53,25 53,77 0,60 -32,153 -116,275 -53,-6 -78,-66 -78,-132 0,-43 9,-87 29,-120zm-119 367c-22,-12 -30,-43 -30,-81 0,-38 9,-84 23,-118 3,69 54,141 108,169 -22,30 -45,40 -67,40 -13,0 -26,-4 -34,-10l0 0zm-485 -849c-58,84 -241,133 -241,133 92,-169 167,-221 212,-221 28,0 44,21 44,46 0,14 -5,28 -15,42l0 0zm-2241 482c36,-69 80,-100 113,-100 31,0 52,25 52,77 0,60 -31,153 -115,275 -53,-6 -78,-66 -78,-132 0,-43 9,-87 28,-120zm-119 367c-21,-12 -29,-43 -29,-81 0,-38 9,-84 24,-118 3,69 52,141 107,169 -22,30 -46,40 -67,40 -12,0 -25,-4 -35,-10l0 0z"/>
  <path id="_5" class="fil0" d="M5367 847c3,-14 5,-27 5,-39 0,-92 -96,-149 -200,-149 -50,0 -103,15 -147,44 -101,75 -155,204 -155,335 0,146 66,293 210,374 96,54 208,81 318,81 251,0 489,-144 489,-442 0,-11 -1,-23 -1,-34 -13,-258 -223,-455 -223,-588 0,-17 5,-32 13,-48 20,-40 51,-55 81,-55 45,0 88,38 88,91 0,18 -6,39 -18,60 30,28 63,41 94,41 71,0 135,-64 135,-153 0,-33 -9,-68 -29,-106 -55,-98 -145,-142 -241,-142 -129,0 -265,83 -314,221 -20,54 -28,107 -28,159 0,172 88,333 88,486 0,48 -10,97 -32,144 -36,64 -116,101 -183,101 -24,0 -47,-5 -65,-16 -55,-31 -80,-89 -80,-149 0,-105 72,-216 184,-216l11 0 0 0zm3879 -146c-9,-91 -77,-140 -165,-140 -186,0 -324,127 -384,274 -27,0 -54,-1 -82,-1 39,-77 75,-161 104,-252 -12,-25 -52,-35 -93,-35 -46,0 -94,14 -111,35 -27,75 -55,145 -84,209 -13,-8 -24,-16 -33,-27l-3 0c-49,0 -82,72 -82,127 0,31 12,56 38,56 -57,98 -108,157 -130,161l-6 0c-18,0 -26,-17 -26,-48 0,-120 134,-439 148,-478 -4,-36 -58,-50 -116,-50 -71,0 -149,21 -163,50l0 0c-16,46 -51,149 -75,263 -61,72 -215,188 -259,195l-4 0c-20,0 -27,-16 -27,-40 0,-105 134,-382 150,-421 -8,-42 -67,-72 -130,-72 -50,0 -101,20 -128,72 -6,19 -17,44 -29,78 -58,-75 -125,-107 -196,-107 -130,0 -266,115 -334,257 -5,10 -9,20 -13,30 -55,71 -237,215 -284,221l-5 0c-17,0 -24,-14 -24,-38 0,-106 145,-402 158,-443 -9,-42 -70,-73 -133,-73 -51,0 -102,21 -128,70 -18,49 -68,169 -104,293 -73,75 -217,186 -257,191l-5 0c-19,0 -25,-14 -25,-38 0,-106 145,-402 159,-443 -9,-42 -72,-73 -137,-73 -52,0 -105,21 -129,70 -28,80 -145,333 -145,506 0,83 28,148 104,165 8,2 17,3 26,3 102,0 258,-113 375,-221 -2,20 -3,39 -3,57 0,81 23,144 95,161 8,2 17,3 26,3 107,0 274,-127 393,-239 -1,7 -1,14 -1,21 0,125 68,203 165,203 88,0 200,-61 314,-206l0 0c-4,21 -4,41 -4,60 0,80 23,141 88,160 9,2 20,4 31,4 110,0 281,-137 398,-253 -1,14 -1,28 -1,42 0,113 29,208 122,237 18,7 36,8 57,8 132,0 291,-134 423,-355l109 -10c-5,26 -8,51 -8,76 0,119 60,223 196,249 18,3 36,4 54,4 241,0 481,-303 535,-386l-89 -32c-93,115 -266,247 -345,247 -7,0 -14,-2 -18,-3 -28,-11 -41,-44 -41,-84 0,-16 1,-32 5,-49 261,-68 286,-176 286,-241l0 0zm-121 -19c8,4 12,11 12,19 0,33 -64,89 -141,101 18,-48 69,-124 113,-124 5,0 11,0 16,4zm-1858 285c-3,-11 -5,-21 -5,-35 0,-98 98,-245 190,-245 27,0 54,12 77,40 -17,47 -34,99 -50,151 -55,54 -129,117 -176,117 -17,0 -29,-8 -36,-28l0 0z"/>
  <path class="fil0" d="M5972 1404l0 83c10,-11 20,-19 31,-24 10,-6 24,-9 39,-9 18,0 34,4 48,13 13,9 24,21 31,37 8,16 12,36 12,58 0,16 -3,32 -7,45 -4,14 -10,26 -18,36 -8,10 -18,18 -29,23 -11,6 -24,9 -37,9 -9,0 -17,-1 -24,-3 -7,-2 -14,-5 -19,-8 -5,-3 -9,-7 -13,-10 -4,-4 -8,-9 -14,-16l0 6c0,10 -3,17 -8,23 -5,5 -11,8 -18,8 -8,0 -14,-3 -19,-8 -4,-6 -7,-13 -7,-23l0 -237c0,-11 3,-20 7,-25 4,-6 11,-9 19,-9 8,0 14,3 19,8 4,6 7,13 7,23zm2 161c0,22 5,39 15,50 10,12 23,18 39,18 14,0 25,-6 35,-18 10,-12 15,-29 15,-51 0,-14 -2,-27 -6,-37 -4,-10 -10,-18 -18,-24 -7,-6 -16,-8 -26,-8 -10,0 -20,2 -28,8 -8,6 -14,14 -19,24 -4,11 -7,24 -7,38zm247 116l5 -12 -67 -168c-4,-10 -6,-17 -6,-21 0,-5 1,-9 3,-13 3,-4 6,-7 10,-10 4,-2 9,-3 13,-3 8,0 14,2 18,7 4,5 7,12 11,22l46 133 43 -124c4,-10 7,-18 9,-24 3,-5 6,-9 9,-11 3,-2 8,-3 13,-3 5,0 8,1 12,3 4,2 7,5 9,9 2,4 3,8 3,12 0,2 -1,6 -2,10 -2,5 -3,10 -5,15l-71 185c-6,16 -12,29 -17,38 -6,10 -14,17 -24,22 -9,5 -22,7 -39,7 -15,0 -27,-1 -35,-5 -8,-3 -12,-10 -12,-19 0,-6 2,-11 5,-14 4,-4 10,-5 17,-5 3,0 6,0 9,1 3,1 6,1 9,1 6,0 11,-1 14,-3 4,-2 7,-5 10,-9 3,-5 6,-12 10,-21zm353 -272l114 171 0 -173c0,-11 2,-20 7,-25 5,-6 11,-9 20,-9 8,0 15,3 20,9 5,5 7,14 7,25l0 229c0,26 -11,39 -32,39 -5,0 -10,-1 -14,-3 -4,-1 -8,-4 -12,-7 -4,-3 -7,-7 -10,-12 -4,-4 -7,-9 -10,-13l-111 -170 0 171c0,11 -2,19 -7,25 -6,6 -12,9 -20,9 -9,0 -15,-3 -20,-9 -6,-6 -8,-14 -8,-25l0 -225c0,-10 1,-17 3,-23 3,-6 7,-10 13,-14 6,-4 12,-6 19,-6 5,0 10,1 13,3 4,1 7,4 10,7 3,3 6,6 9,11 3,5 6,9 9,15zm366 235c-13,10 -26,18 -38,23 -12,5 -26,8 -41,8 -14,0 -26,-3 -37,-9 -10,-5 -19,-13 -24,-22 -6,-9 -9,-20 -9,-31 0,-15 5,-27 14,-38 10,-10 23,-17 39,-21 4,-1 12,-2 26,-5 13,-3 25,-5 35,-8 10,-2 20,-5 32,-8 -1,-15 -4,-25 -9,-32 -5,-6 -16,-10 -32,-10 -14,0 -24,2 -31,6 -7,4 -13,10 -18,17 -5,8 -8,13 -10,16 -2,2 -7,3 -14,3 -6,0 -11,-2 -15,-6 -5,-4 -7,-9 -7,-15 0,-9 3,-19 10,-28 7,-9 17,-16 32,-22 14,-6 32,-9 53,-9 24,0 43,3 57,9 13,5 23,14 29,27 5,12 8,28 8,48 0,13 0,24 0,33 0,9 0,18 0,29 0,10 1,21 5,32 3,11 5,18 5,22 0,5 -3,10 -8,15 -5,4 -11,7 -18,7 -5,0 -11,-3 -16,-8 -6,-5 -12,-13 -18,-23zm-3 -79c-8,3 -20,6 -35,10 -15,3 -26,5 -32,7 -5,1 -11,4 -16,9 -6,4 -8,10 -8,18 0,9 3,16 9,21 6,6 15,9 25,9 10,0 20,-2 29,-7 9,-5 16,-11 20,-18 5,-8 8,-22 8,-41l0 -8zm101 -106l6 0 0 -33c0,-9 0,-16 1,-21 0,-5 1,-9 3,-12 3,-4 6,-7 10,-10 4,-2 8,-3 13,-3 7,0 13,3 19,8 3,3 6,7 7,12 1,5 1,12 1,22l0 37 20 0c8,0 14,1 18,5 4,4 6,8 6,14 0,7 -3,12 -9,15 -6,3 -14,5 -25,5l-10 0 0 100c0,8 0,15 1,19 1,5 2,8 5,11 2,3 7,5 12,5 4,0 8,-1 13,-2 6,-1 10,-2 13,-2 4,0 8,2 12,6 3,3 5,7 5,13 0,8 -5,15 -14,20 -10,4 -23,7 -41,7 -17,0 -30,-3 -39,-9 -9,-6 -14,-14 -17,-24 -3,-10 -4,-23 -4,-40l0 -104 -7 0c-8,0 -14,-2 -18,-6 -4,-3 -6,-8 -6,-14 0,-6 2,-10 6,-14 5,-4 11,-5 19,-5zm293 119l-107 0c1,12 3,23 8,32 5,10 11,17 19,22 8,4 17,7 27,7 6,0 12,-1 18,-3 5,-1 10,-3 15,-7 5,-3 10,-6 14,-10 4,-4 10,-9 17,-15 2,-3 6,-4 12,-4 5,0 10,2 13,5 3,3 5,7 5,13 0,5 -2,10 -6,17 -3,6 -9,13 -17,19 -8,6 -17,11 -29,15 -12,4 -25,6 -41,6 -35,0 -62,-10 -81,-30 -19,-20 -29,-47 -29,-81 0,-16 2,-31 7,-45 5,-14 12,-25 21,-35 9,-10 20,-18 34,-23 13,-5 28,-8 44,-8 22,0 40,5 55,14 15,9 26,20 34,35 8,14 11,28 11,43 0,14 -3,22 -11,27 -8,4 -19,6 -33,6zm-107 -31l99 0c-1,-19 -6,-33 -15,-42 -9,-9 -20,-14 -34,-14 -14,0 -25,5 -34,14 -8,10 -14,23 -16,42zm56 -171l27 0c7,0 10,1 10,3 0,1 -3,5 -11,13 -7,7 -15,15 -22,22 -8,6 -13,11 -16,12 -8,4 -16,6 -24,6 -6,0 -9,-2 -9,-5 0,-2 2,-6 5,-12l9 -17c5,-9 10,-15 14,-18 4,-3 9,-4 17,-4zm195 220l0 46c0,11 -3,19 -8,24 -5,6 -11,9 -19,9 -8,0 -15,-3 -20,-9 -5,-5 -7,-14 -7,-24l0 -152c0,-24 9,-36 26,-36 9,0 16,3 20,8 4,6 6,15 6,26 7,-11 13,-20 20,-26 7,-5 16,-8 28,-8 11,0 22,3 33,8 11,6 16,14 16,23 0,7 -2,12 -7,17 -4,4 -9,6 -15,6 -2,0 -7,-1 -14,-4 -8,-2 -15,-3 -20,-3 -8,0 -15,2 -20,6 -5,4 -9,10 -12,18 -2,9 -4,18 -5,30 -1,11 -2,25 -2,41zm309 11c0,7 -2,14 -6,22 -4,8 -10,15 -19,22 -8,7 -18,13 -31,17 -13,4 -27,6 -43,6 -33,0 -59,-10 -78,-29 -19,-20 -28,-46 -28,-79 0,-22 4,-42 13,-59 8,-17 21,-30 37,-40 16,-9 36,-14 59,-14 14,0 26,2 38,7 12,4 22,9 30,15 8,7 14,14 19,21 4,8 6,15 6,21 0,6 -2,12 -7,16 -5,5 -11,7 -18,7 -4,0 -8,-1 -11,-3 -3,-3 -6,-6 -10,-11 -7,-11 -14,-18 -21,-23 -7,-5 -16,-8 -27,-8 -16,0 -29,7 -39,19 -10,13 -15,30 -15,51 0,11 1,20 4,29 3,8 6,15 11,21 5,6 10,11 17,14 7,3 14,5 23,5 10,0 20,-3 27,-8 8,-5 15,-12 21,-23 3,-6 7,-11 11,-14 4,-4 8,-5 14,-5 7,0 12,2 16,7 5,5 7,11 7,16zm101 -122l0 157c0,10 -2,19 -7,24 -5,6 -12,9 -20,9 -8,0 -14,-3 -19,-9 -5,-6 -8,-14 -8,-24l0 -156c0,-11 3,-19 8,-24 5,-6 11,-8 19,-8 8,0 15,2 20,8 5,5 7,13 7,23zm-26 -56c-8,0 -14,-3 -20,-7 -5,-5 -8,-12 -8,-20 0,-8 3,-14 8,-19 6,-5 12,-7 20,-7 7,0 13,2 18,6 6,5 8,11 8,20 0,8 -2,15 -7,19 -6,5 -12,8 -19,8zm220 215c-13,10 -26,18 -38,23 -12,5 -26,8 -41,8 -14,0 -27,-3 -37,-9 -11,-5 -19,-13 -25,-22 -5,-9 -8,-20 -8,-31 0,-15 5,-27 14,-38 9,-10 22,-17 39,-21 3,-1 12,-2 25,-5 14,-3 26,-5 36,-8 9,-2 20,-5 31,-8 0,-15 -3,-25 -8,-32 -5,-6 -16,-10 -32,-10 -14,0 -24,2 -31,6 -7,4 -13,10 -18,17 -5,8 -9,13 -11,16 -2,2 -6,3 -13,3 -6,0 -11,-2 -16,-6 -4,-4 -6,-9 -6,-15 0,-9 3,-19 10,-28 7,-9 17,-16 31,-22 15,-6 33,-9 54,-9 24,0 43,3 56,9 14,5 24,14 29,27 6,12 9,28 9,48 0,13 0,24 0,33 -1,9 -1,18 -1,29 0,10 2,21 5,32 4,11 5,18 5,22 0,5 -2,10 -7,15 -6,4 -12,7 -18,7 -6,0 -11,-3 -17,-8 -5,-5 -11,-13 -17,-23zm-4 -79c-8,3 -19,6 -34,10 -16,3 -26,5 -32,7 -6,1 -11,4 -17,9 -5,4 -8,10 -8,18 0,9 4,16 10,21 6,6 14,9 24,9 11,0 21,-2 30,-7 9,-5 16,-11 20,-18 5,-8 7,-22 7,-41l0 -8zm272 -156l0 212 120 0c9,0 17,3 22,7 5,5 7,11 7,18 0,7 -2,13 -7,17 -5,4 -12,7 -22,7l-143 0c-13,0 -22,-3 -27,-9 -6,-6 -9,-15 -9,-28l0 -224c0,-12 3,-21 8,-27 5,-6 13,-9 21,-9 9,0 16,3 22,9 5,6 8,15 8,27zm388 155c0,16 -3,31 -8,45 -5,14 -12,25 -22,35 -9,10 -21,17 -34,23 -13,5 -28,8 -44,8 -17,0 -32,-3 -45,-8 -13,-6 -24,-13 -34,-23 -10,-10 -17,-22 -22,-35 -5,-14 -7,-29 -7,-45 0,-16 2,-31 7,-45 5,-14 12,-25 22,-35 9,-10 21,-17 34,-22 13,-6 28,-8 45,-8 16,0 31,2 44,8 14,5 25,13 35,22 9,10 17,22 21,35 5,14 8,29 8,45zm-55 0c0,-22 -5,-39 -14,-51 -10,-13 -23,-19 -39,-19 -11,0 -20,3 -29,8 -8,6 -14,14 -18,25 -5,10 -7,23 -7,37 0,14 2,27 7,37 4,11 10,19 18,25 8,5 18,8 29,8 16,0 29,-6 39,-18 9,-13 14,-30 14,-52zm148 -80l0 7c10,-13 21,-22 32,-28 11,-6 23,-9 37,-9 17,0 32,4 46,13 14,9 25,21 34,38 8,16 12,36 12,59 0,16 -3,32 -7,46 -5,14 -12,26 -20,35 -8,10 -18,17 -29,22 -11,5 -23,8 -36,8 -15,0 -28,-4 -39,-10 -11,-6 -21,-15 -30,-27l0 81c0,24 -9,36 -26,36 -10,0 -17,-3 -21,-9 -3,-6 -4,-15 -4,-27l0 -234c0,-11 2,-18 6,-24 5,-5 11,-7 19,-7 7,0 14,2 19,8 4,5 7,12 7,22zm106 79c0,-14 -2,-26 -6,-37 -5,-10 -11,-18 -19,-23 -7,-6 -16,-8 -25,-8 -15,0 -28,5 -38,17 -10,12 -16,29 -16,52 0,22 6,39 16,51 10,12 23,18 38,18 9,0 17,-3 25,-8 7,-5 14,-13 18,-24 5,-10 7,-23 7,-38zm250 15l-106 0c0,12 2,23 7,32 5,10 11,17 19,22 8,4 17,7 27,7 6,0 12,-1 18,-3 5,-1 10,-3 15,-7 5,-3 10,-6 14,-10 4,-4 10,-9 17,-15 3,-3 6,-4 12,-4 5,0 10,2 13,5 4,3 5,7 5,13 0,5 -2,10 -5,17 -4,6 -10,13 -18,19 -8,6 -17,11 -29,15 -12,4 -25,6 -40,6 -35,0 -62,-10 -82,-30 -19,-20 -29,-47 -29,-81 0,-16 3,-31 7,-45 5,-14 12,-25 21,-35 9,-10 21,-18 34,-23 13,-5 28,-8 44,-8 22,0 40,5 55,14 15,9 27,20 34,35 8,14 12,28 12,43 0,14 -4,22 -12,27 -8,4 -19,6 -33,6zm-106 -31l98 0c-1,-19 -6,-33 -15,-42 -9,-9 -20,-14 -34,-14 -14,0 -25,5 -34,14 -8,10 -14,23 -15,42zm371 57c0,15 -3,27 -11,38 -7,11 -18,19 -32,24 -14,6 -32,9 -52,9 -20,0 -36,-3 -50,-9 -14,-6 -24,-14 -31,-23 -7,-9 -10,-18 -10,-27 0,-6 2,-11 6,-15 5,-4 10,-6 17,-6 5,0 10,1 13,4 3,3 6,7 8,12 6,9 13,17 20,21 8,5 19,8 32,8 11,0 20,-3 27,-8 7,-5 10,-10 10,-16 0,-10 -3,-17 -11,-21 -7,-5 -19,-9 -35,-13 -19,-4 -34,-9 -46,-14 -12,-6 -21,-12 -28,-21 -7,-8 -11,-18 -11,-30 0,-11 4,-22 10,-31 7,-10 16,-18 29,-24 13,-5 28,-8 46,-8 14,0 26,1 38,4 11,3 20,7 28,12 7,5 13,10 17,16 4,6 6,12 6,18 0,6 -2,11 -7,15 -4,4 -10,6 -17,6 -6,0 -11,-2 -15,-5 -4,-3 -8,-8 -13,-14 -4,-5 -9,-10 -15,-13 -5,-3 -13,-5 -22,-5 -10,0 -18,2 -25,7 -6,4 -9,9 -9,15 0,6 2,11 7,14 5,4 11,7 19,9 8,3 19,6 33,9 17,4 31,9 42,15 10,6 18,12 24,20 5,8 8,17 8,27z"/>
 </g>
</svg>
