<?xml version="1.0" encoding="UTF-8"?>
<!DOCTYPE svg PUBLIC "-//W3C//DTD SVG 1.1//EN" "http://www.w3.org/Graphics/SVG/1.1/DTD/svg11.dtd">
<!-- Creator: CorelDRAW X8 -->
<svg xmlns="http://www.w3.org/2000/svg" xml:space="preserve" width="2.41504in" height="5.06724in" version="1.1" style="shape-rendering:geometricPrecision; text-rendering:geometricPrecision; image-rendering:optimizeQuality; fill-rule:evenodd; clip-rule:evenodd"
viewBox="0 0 228 477"
 xmlns:xlink="http://www.w3.org/1999/xlink">
 <defs>
  <style type="text/css">
   <![CDATA[
    .fil0 {fill:#27273C}
   ]]>
  </style>
 </defs>
 <g id="Layer_x0020_1">
  <metadata id="CorelCorpID_0Corel-Layer"/>
  <g id="_2935828660608">
   <path class="fil0" d="M30 270c0,11 2,20 3,30 5,34 12,92 23,123 1,4 3,9 5,12 3,8 9,12 17,16 17,6 54,6 71,0 8,-3 14,-7 18,-15 13,-26 23,-105 28,-135 4,-33 7,-61 -27,-78 -8,-4 -12,-1 -22,-1l-69 0c-13,0 -10,-3 -20,3 -16,8 -27,24 -27,45z"/>
   <path class="fil0" d="M54 17l0 171c0,12 9,18 22,18l72 0c13,0 22,-6 22,-18l0 -171c0,-9 -7,-17 -16,-17l-84 0c-9,0 -16,8 -16,17z"/>
   <path class="fil0" d="M184 199c9,4 16,7 21,15 15,21 9,48 5,72 -5,35 -20,138 -37,165 -12,17 -56,13 -76,13 -12,0 -22,-2 -31,-5 -4,-2 -8,-5 -11,-8 -3,-5 -8,-19 -10,-26 -2,-5 -3,-9 -4,-14 -3,-11 -5,-20 -7,-30 -4,-21 -8,-41 -12,-63l-7 -48c-4,-29 -4,-54 25,-70 0,-5 -2,-6 -2,-13 -9,3 -21,14 -26,21 -18,23 -12,53 -8,80 6,37 21,134 37,165 10,18 31,23 53,24l36 0c11,0 26,-2 34,-5 23,-10 25,-24 33,-48 10,-32 21,-101 26,-136 4,-25 11,-60 -8,-82 -3,-4 -8,-9 -13,-12 -5,-3 -11,-7 -16,-8 0,4 -1,9 -2,13z"/>
  </g>
 </g>
</svg>
